Oxygen.ufo
<glyph name="quotedbl" format="1">
  <advance width="710"/>
  <unicode hex="0022"/>
  <outline>
    <contour>
      <point x="446" y="1016" type="line"/>
      <point x="425" y="1510" type="line"/>
      <point x="576" y="1510" type="line"/>
      <point x="547" y="1016" type="line"/>
    </contour>
    <contour>
      <point x="160" y="1016" type="line"/>
      <point x="139" y="1510" type="line"/>
      <point x="290" y="1510" type="line"/>
      <point x="261" y="1016" type="line"/>
    </contour>
  </outline>
</glyph>
<glyph name="asterisk" format="1">
  <advance width="1081"/>
  <unicode hex="002A"/>
  <outline>
    <contour>
      <point x="629" y="1489" type="line"/>
      <point x="600" y="1062" type="line"/>
      <point x="921" y="1253" type="line"/>
      <point x="994" y="1093" type="line"/>
      <point x="641" y="958" type="line" smooth="yes"/>
      <point x="641" y="957"/>
      <point x="817" y="730"/>
      <point x="897" y="617" type="curve"/>
      <point x="852" y="582"/>
      <point x="807" y="558"/>
      <point x="762" y="523" type="curve"/>
      <point x="537" y="886" type="line"/>
      <point x="320" y="523" type="line"/>
      <point x="184" y="617" type="line"/>
      <point x="438" y="958" type="line"/>
      <point x="89" y="1093" type="line"/>
      <point x="159" y="1253" type="line"/>
      <point x="483" y="1062" type="line"/>
      <point x="451" y="1489" type="line"/>
    </contour>
  </outline>
</glyph>
<glyph name="hyphen" format="1">
  <advance width="686"/>
  <unicode hex="002D"/>
  <outline>
    <contour>
      <point x="89" y="521" type="line"/>
      <point x="89" y="663" type="line"/>
      <point x="597" y="663" type="line"/>
      <point x="597" y="521" type="line"/>
    </contour>
  </outline>
</glyph>
<glyph name="two" format="1">
  <advance width="1200"/>
  <unicode hex="0032"/>
  <outline>
    <contour>
      <point x="186" y="1395" type="line"/>
      <point x="269" y="1473"/>
      <point x="396" y="1525"/>
      <point x="590" y="1525" type="curve" smooth="yes"/>
      <point x="862" y="1525"/>
      <point x="1036" y="1365"/>
      <point x="1036" y="1119" type="curve" smooth="yes"/>
      <point x="1036" y="1113" type="line"/>
      <point x="1034" y="925"/>
      <point x="933" y="781"/>
      <point x="770" y="605" type="curve"/>
      <point x="348" y="154" type="line"/>
      <point x="1041" y="154" type="line"/>
      <point x="1030" y="0" type="line"/>
      <point x="155" y="0" type="line"/>
      <point x="132" y="164" type="line"/>
      <point x="649" y="738" type="line" smooth="yes"/>
      <point x="766" y="868"/>
      <point x="840" y="980"/>
      <point x="843" y="1097" type="curve"/>
      <point x="843" y="1107" type="line" smooth="yes"/>
      <point x="843" y="1272"/>
      <point x="748" y="1368"/>
      <point x="578" y="1368" type="curve" smooth="yes"/>
      <point x="453" y="1368"/>
      <point x="328" y="1330"/>
      <point x="244" y="1245" type="curve"/>
    </contour>
  </outline>
</glyph>
<glyph name="three" format="1">
  <advance width="1200"/>
  <unicode hex="0033"/>
  <outline>
    <contour>
      <point x="904" y="412" type="curve" smooth="yes"/>
      <point x="904" y="681"/>
      <point x="681" y="722"/>
      <point x="402" y="722" type="curve"/>
      <point x="402" y="871" type="line"/>
      <point x="632" y="871"/>
      <point x="850" y="897"/>
      <point x="850" y="1133" type="curve" smooth="yes"/>
      <point x="850" y="1298"/>
      <point x="753" y="1373"/>
      <point x="576" y="1373" type="curve" smooth="yes"/>
      <point x="439" y="1373"/>
      <point x="319" y="1329"/>
      <point x="240" y="1266" type="curve"/>
      <point x="184" y="1412" type="line"/>
      <point x="275" y="1481"/>
      <point x="407" y="1525"/>
      <point x="614" y="1525" type="curve" smooth="yes"/>
      <point x="835" y="1525"/>
      <point x="1042" y="1395"/>
      <point x="1042" y="1156" type="curve" smooth="yes"/>
      <point x="1042" y="964"/>
      <point x="942" y="847"/>
      <point x="780" y="797" type="curve"/>
      <point x="963" y="757"/>
      <point x="1078" y="620"/>
      <point x="1078" y="410" type="curve" smooth="yes"/>
      <point x="1078" y="143"/>
      <point x="866" y="-23"/>
      <point x="576" y="-23" type="curve" smooth="yes"/>
      <point x="382" y="-23"/>
      <point x="240" y="40"/>
      <point x="184" y="93" type="curve"/>
      <point x="240" y="240" type="line"/>
      <point x="315" y="181"/>
      <point x="425" y="129"/>
      <point x="576" y="129" type="curve" smooth="yes"/>
      <point x="772" y="129"/>
      <point x="904" y="230"/>
    </contour>
  </outline>
</glyph>
<glyph name="four" format="1">
  <advance width="1200"/>
  <unicode hex="0034"/>
  <outline>
    <contour>
      <point x="1116" y="371" type="line"/>
      <point x="946" y="371" type="line"/>
      <point x="946" y="0" type="line"/>
      <point x="778" y="0" type="line"/>
      <point x="778" y="371" type="line"/>
      <point x="102" y="371" type="line"/>
      <point x="102" y="524" type="line"/>
      <point x="760" y="1496" type="line"/>
      <point x="946" y="1496" type="line"/>
      <point x="946" y="516" type="line"/>
      <point x="1130" y="516" type="line"/>
    </contour>
    <contour>
      <point x="778" y="1269" type="line"/>
      <point x="278" y="516" type="line"/>
      <point x="778" y="516" type="line"/>
    </contour>
  </outline>
</glyph>
<glyph name="six" format="1">
  <advance width="1200"/>
  <unicode hex="0036"/>
  <outline>
    <contour>
      <point x="638" y="921" type="curve" smooth="yes"/>
      <point x="890" y="921"/>
      <point x="1107" y="725"/>
      <point x="1107" y="449" type="curve" smooth="yes"/>
      <point x="1107" y="182"/>
      <point x="914" y="-23"/>
      <point x="608" y="-23" type="curve" smooth="yes"/>
      <point x="288" y="-23"/>
      <point x="104" y="202"/>
      <point x="104" y="472" type="curve" smooth="yes"/>
      <point x="104" y="697"/>
      <point x="178" y="837"/>
      <point x="378" y="1089" type="curve" smooth="yes"/>
      <point x="463" y="1197"/>
      <point x="708" y="1489"/>
      <point x="708" y="1489" type="curve"/>
      <point x="939" y="1489" type="line"/>
      <point x="412" y="861" type="line"/>
      <point x="476" y="895"/>
      <point x="558" y="921"/>
    </contour>
    <contour>
      <point x="293" y="453" type="curve" smooth="yes"/>
      <point x="293" y="280"/>
      <point x="396" y="129"/>
      <point x="602" y="129" type="curve" smooth="yes"/>
      <point x="807" y="129"/>
      <point x="918" y="274"/>
      <point x="918" y="446" type="curve" smooth="yes"/>
      <point x="918" y="630"/>
      <point x="804" y="771"/>
      <point x="602" y="771" type="curve" smooth="yes"/>
      <point x="380" y="771"/>
      <point x="293" y="625"/>
    </contour>
  </outline>
</glyph>
<glyph name="question" format="1">
  <advance width="865"/>
  <unicode hex="003F"/>
  <outline>
    <contour>
      <point x="404" y="435" type="curve"/>
      <point x="317" y="435" type="line"/>
      <point x="317" y="668"/>
      <point x="602" y="989"/>
      <point x="602" y="1186" type="curve"/>
      <point x="600" y="1318"/>
      <point x="510" y="1373"/>
      <point x="377" y="1373" type="curve" smooth="yes"/>
      <point x="257" y="1373"/>
      <point x="166" y="1322"/>
      <point x="118" y="1292" type="curve"/>
      <point x="73" y="1427" type="line"/>
      <point x="163" y="1498"/>
      <point x="293" y="1524"/>
      <point x="404" y="1524" type="curve" smooth="yes"/>
      <point x="614" y="1524"/>
      <point x="765" y="1408"/>
      <point x="765" y="1200" type="curve" smooth="yes"/>
      <point x="765" y="927"/>
      <point x="554" y="770"/>
    </contour>
    <contour>
      <point x="242" y="120" type="curve" smooth="yes"/>
      <point x="242" y="186"/>
      <point x="287" y="252"/>
      <point x="375" y="252" type="curve" smooth="yes"/>
      <point x="464" y="252"/>
      <point x="508" y="186"/>
      <point x="508" y="120" type="curve" smooth="yes"/>
      <point x="508" y="54"/>
      <point x="464" y="-12"/>
      <point x="375" y="-12" type="curve" smooth="yes"/>
      <point x="287" y="-12"/>
      <point x="242" y="54"/>
    </contour>
  </outline>
</glyph>
<glyph name="A" format="1">
  <advance width="1309"/>
  <unicode hex="0041"/>
  <outline>
    <contour>
      <point x="1123" y="0" type="line"/>
      <point x="958" y="473" type="line"/>
      <point x="365" y="473" type="line"/>
      <point x="187" y="0" type="line"/>
      <point x="6" y="0" type="line"/>
      <point x="564" y="1496" type="line"/>
      <point x="776" y="1496" type="line"/>
      <point x="1303" y="0" type="line"/>
    </contour>
    <contour>
      <point x="420" y="611" type="line"/>
      <point x="899" y="611" type="line"/>
      <point x="671" y="1324" type="line"/>
    </contour>
  </outline>
</glyph>
<glyph name="C" format="1">
  <advance width="1289"/>
  <unicode hex="0043"/>
  <outline>
    <contour>
      <point x="814" y="1525" type="curve" smooth="yes"/>
      <point x="1011" y="1525"/>
      <point x="1148" y="1473"/>
      <point x="1251" y="1389" type="curve"/>
      <point x="1187" y="1254" type="line"/>
      <point x="1103" y="1319"/>
      <point x="973" y="1373"/>
      <point x="819" y="1373" type="curve" smooth="yes"/>
      <point x="456" y="1373"/>
      <point x="288" y="1078"/>
      <point x="288" y="746" type="curve" smooth="yes"/>
      <point x="288" y="429"/>
      <point x="435" y="129"/>
      <point x="829" y="129" type="curve" smooth="yes"/>
      <point x="979" y="129"/>
      <point x="1106" y="186"/>
      <point x="1188" y="252" type="curve"/>
      <point x="1246" y="107" type="line"/>
      <point x="1147" y="19"/>
      <point x="1009" y="-23"/>
      <point x="815" y="-23" type="curve" smooth="yes"/>
      <point x="345" y="-23"/>
      <point x="99" y="322"/>
      <point x="99" y="745" type="curve" smooth="yes"/>
      <point x="99" y="1187"/>
      <point x="353" y="1525"/>
    </contour>
  </outline>
</glyph>
<glyph name="D" format="1">
  <advance width="1511"/>
  <unicode hex="0044"/>
  <outline>
    <contour>
      <point x="147" y="0" type="line"/>
      <point x="147" y="1496" type="line"/>
      <point x="519" y="1496" type="line" smooth="yes"/>
      <point x="1036" y="1496"/>
      <point x="1412" y="1315"/>
      <point x="1412" y="738" type="curve" smooth="yes"/>
      <point x="1412" y="240"/>
      <point x="1093" y="0"/>
      <point x="621" y="0" type="curve" smooth="yes"/>
    </contour>
    <contour>
      <point x="324" y="1341" type="line"/>
      <point x="324" y="155" type="line"/>
      <point x="639" y="155" type="line" smooth="yes"/>
      <point x="1005" y="155"/>
      <point x="1223" y="347"/>
      <point x="1223" y="734" type="curve" smooth="yes"/>
      <point x="1223" y="1205"/>
      <point x="949" y="1341"/>
      <point x="540" y="1341" type="curve" smooth="yes"/>
    </contour>
  </outline>
</glyph>
<glyph name="G" format="1">
  <advance width="1432"/>
  <unicode hex="0047"/>
  <outline>
    <contour>
      <point x="811" y="-23" type="curve" smooth="yes"/>
      <point x="338" y="-23"/>
      <point x="101" y="335"/>
      <point x="101" y="745" type="curve" smooth="yes"/>
      <point x="101" y="1164"/>
      <point x="334" y="1525"/>
      <point x="816" y="1525" type="curve" smooth="yes"/>
      <point x="1008" y="1525"/>
      <point x="1161" y="1472"/>
      <point x="1275" y="1380" type="curve"/>
      <point x="1210" y="1243" type="line"/>
      <point x="1129" y="1309"/>
      <point x="976" y="1373"/>
      <point x="830" y="1373" type="curve" smooth="yes"/>
      <point x="451" y="1373"/>
      <point x="290" y="1074"/>
      <point x="290" y="745" type="curve" smooth="yes"/>
      <point x="290" y="413"/>
      <point x="451" y="129"/>
      <point x="830" y="129" type="curve" smooth="yes"/>
      <point x="955" y="129"/>
      <point x="1101" y="179"/>
      <point x="1167" y="220" type="curve"/>
      <point x="1167" y="615" type="line"/>
      <point x="797" y="615" type="line"/>
      <point x="809" y="764" type="line"/>
      <point x="1321" y="764" type="line"/>
      <point x="1321" y="123" type="line"/>
      <point x="1142" y="15"/>
      <point x="1002" y="-23"/>
    </contour>
  </outline>
</glyph>
<glyph name="P" format="1">
  <advance width="1159"/>
  <unicode hex="0050"/>
  <outline>
    <contour>
      <point x="323" y="0" type="line"/>
      <point x="146" y="0" type="line"/>
      <point x="146" y="1496" type="line"/>
      <point x="628" y="1496" type="line" smooth="yes"/>
      <point x="912" y="1496"/>
      <point x="1130" y="1382"/>
      <point x="1130" y="1093" type="curve" smooth="yes"/>
      <point x="1130" y="815"/>
      <point x="1010" y="625"/>
      <point x="567" y="625" type="curve" smooth="yes"/>
      <point x="505" y="625"/>
      <point x="399" y="631"/>
      <point x="323" y="638" type="curve"/>
    </contour>
    <contour>
      <point x="584" y="778" type="curve" smooth="yes"/>
      <point x="923" y="778"/>
      <point x="950" y="941"/>
      <point x="950" y="1090" type="curve" smooth="yes"/>
      <point x="950" y="1267"/>
      <point x="817" y="1337"/>
      <point x="632" y="1337" type="curve" smooth="yes"/>
      <point x="323" y="1337" type="line"/>
      <point x="323" y="780" type="line"/>
      <point x="323" y="780"/>
      <point x="516" y="778"/>
    </contour>
  </outline>
</glyph>
<glyph name="Q" format="1">
  <advance width="1657"/>
  <unicode hex="0051"/>
  <outline>
    <component base="O"/>
    <contour>
      <point x="1267" y="-470" type="line"/>
      <point x="1228" y="-431"/>
      <point x="1027" y="-192"/>
      <point x="942" y="-17" type="curve"/>
      <point x="945" y="-16"/>
      <point x="1036" y="31"/>
      <point x="1088" y="31" type="curve" smooth="yes"/>
      <point x="1097" y="31"/>
      <point x="1105" y="29"/>
      <point x="1111" y="26" type="curve"/>
      <point x="1177" y="-120"/>
      <point x="1354" y="-322"/>
      <point x="1385" y="-350" type="curve"/>
    </contour>
  </outline>
</glyph>
<glyph name="S" format="1">
  <advance width="1227"/>
  <unicode hex="0053"/>
  <outline>
    <contour>
      <point x="146" y="244" type="line"/>
      <point x="280" y="178"/>
      <point x="450" y="130"/>
      <point x="641" y="130" type="curve" smooth="yes"/>
      <point x="853" y="130"/>
      <point x="966" y="224"/>
      <point x="966" y="426" type="curve" smooth="yes"/>
      <point x="966" y="546"/>
      <point x="917" y="627"/>
      <point x="727" y="675" type="curve" smooth="yes"/>
      <point x="433" y="749" type="line" smooth="yes"/>
      <point x="227" y="801"/>
      <point x="96" y="911"/>
      <point x="96" y="1109" type="curve" smooth="yes"/>
      <point x="96" y="1400"/>
      <point x="314" y="1525"/>
      <point x="642" y="1525" type="curve" smooth="yes"/>
      <point x="825" y="1525"/>
      <point x="987" y="1482"/>
      <point x="1089" y="1418" type="curve"/>
      <point x="1039" y="1277" type="line"/>
      <point x="960" y="1321"/>
      <point x="800" y="1372"/>
      <point x="638" y="1372" type="curve" smooth="yes"/>
      <point x="400" y="1372"/>
      <point x="276" y="1294"/>
      <point x="276" y="1121" type="curve" smooth="yes"/>
      <point x="276" y="1004"/>
      <point x="354" y="941"/>
      <point x="498" y="906" type="curve" smooth="yes"/>
      <point x="779" y="838" type="line" smooth="yes"/>
      <point x="1003" y="784"/>
      <point x="1145" y="676"/>
      <point x="1145" y="432" type="curve" smooth="yes"/>
      <point x="1145" y="121"/>
      <point x="936" y="-23"/>
      <point x="630" y="-23" type="curve" smooth="yes"/>
      <point x="370" y="-23"/>
      <point x="185" y="44"/>
      <point x="94" y="100" type="curve"/>
    </contour>
  </outline>
</glyph>
<glyph name="backslash" format="1">
  <advance width="935"/>
  <unicode hex="005C"/>
  <outline>
    <contour>
      <point x="881" y="-120" type="line"/>
      <point x="735" y="-120" type="line"/>
      <point x="82" y="1466" type="line"/>
      <point x="230" y="1466" type="line"/>
    </contour>
  </outline>
</glyph>
<glyph name="a" format="1">
  <advance width="1057"/>
  <unicode hex="0061"/>
  <outline>
    <contour>
      <point x="771" y="120" type="curve"/>
      <point x="675" y="12"/>
      <point x="543" y="-25"/>
      <point x="428" y="-25" type="curve" smooth="yes"/>
      <point x="247" y="-25"/>
      <point x="95" y="70"/>
      <point x="95" y="275" type="curve" smooth="yes"/>
      <point x="95" y="563"/>
      <point x="373" y="602"/>
      <point x="656" y="643" type="curve" smooth="yes"/>
      <point x="657" y="643"/>
      <point x="766" y="656"/>
      <point x="766" y="656" type="curve"/>
      <point x="766" y="781" type="line" smooth="yes"/>
      <point x="766" y="914"/>
      <point x="701" y="983"/>
      <point x="550" y="983" type="curve" smooth="yes"/>
      <point x="429" y="983"/>
      <point x="297" y="953"/>
      <point x="207" y="909" type="curve" smooth="yes"/>
      <point x="206" y="909"/>
      <point x="161" y="1041"/>
      <point x="161" y="1041" type="curve"/>
      <point x="244" y="1087"/>
      <point x="391" y="1124"/>
      <point x="546" y="1124" type="curve" smooth="yes"/>
      <point x="763" y="1124"/>
      <point x="933" y="1051"/>
      <point x="933" y="806" type="curve" smooth="yes"/>
      <point x="933" y="0" type="line"/>
      <point x="796" y="0" type="line"/>
      <point x="795" y="1"/>
      <point x="771" y="120"/>
    </contour>
    <contour>
      <point x="446" y="107" type="curve" smooth="yes"/>
      <point x="550" y="107"/>
      <point x="695" y="170"/>
      <point x="766" y="269" type="curve"/>
      <point x="766" y="539" type="line" smooth="yes"/>
      <point x="766" y="538"/>
      <point x="669" y="525"/>
      <point x="666" y="525" type="curve" smooth="yes"/>
      <point x="354" y="484"/>
      <point x="263" y="434"/>
      <point x="263" y="280" type="curve" smooth="yes"/>
      <point x="263" y="157"/>
      <point x="341" y="107"/>
    </contour>
  </outline>
</glyph>
<glyph name="b" format="1">
  <advance width="1176"/>
  <unicode hex="0062"/>
  <outline>
    <contour>
      <point x="617" y="113" type="curve" smooth="yes"/>
      <point x="860" y="113"/>
      <point x="933" y="348"/>
      <point x="933" y="548" type="curve" smooth="yes"/>
      <point x="933" y="745"/>
      <point x="862" y="986"/>
      <point x="622" y="986" type="curve"/>
      <point x="428" y="983"/>
      <point x="287" y="810"/>
      <point x="287" y="551" type="curve" smooth="yes"/>
      <point x="287" y="314"/>
      <point x="383" y="113"/>
    </contour>
    <contour>
      <point x="629" y="-25" type="curve" smooth="yes"/>
      <point x="481" y="-25"/>
      <point x="355" y="45"/>
      <point x="287" y="163" type="curve"/>
      <point x="287" y="0" type="line"/>
      <point x="121" y="0" type="line"/>
      <point x="121" y="1490" type="line"/>
      <point x="289" y="1510" type="line"/>
      <point x="289" y="930" type="line"/>
      <point x="375" y="1071"/>
      <point x="513" y="1124"/>
      <point x="633" y="1124" type="curve" smooth="yes"/>
      <point x="944" y="1124"/>
      <point x="1106" y="851"/>
      <point x="1106" y="559" type="curve" smooth="yes"/>
      <point x="1106" y="241"/>
      <point x="947" y="-25"/>
    </contour>
  </outline>
</glyph>
<glyph name="g" format="1">
  <advance width="1158"/>
  <unicode hex="0067"/>
  <outline>
    <contour>
      <point x="569" y="143" type="curve" smooth="yes"/>
      <point x="805" y="143"/>
      <point x="889" y="319"/>
      <point x="889" y="516" type="curve" smooth="yes"/>
      <point x="889" y="597" type="line" smooth="yes"/>
      <point x="889" y="805"/>
      <point x="798" y="982"/>
      <point x="570" y="982" type="curve" smooth="yes"/>
      <point x="332" y="982"/>
      <point x="242" y="744"/>
      <point x="242" y="554" type="curve" smooth="yes"/>
      <point x="242" y="366"/>
      <point x="341" y="143"/>
    </contour>
    <contour>
      <point x="319" y="-502" type="line"/>
      <point x="297" y="-351" type="line"/>
      <point x="501" y="-351" type="line" smooth="yes"/>
      <point x="846" y="-351"/>
      <point x="884" y="-193"/>
      <point x="884" y="83" type="curve" smooth="yes"/>
      <point x="884" y="180" type="line"/>
      <point x="812" y="76"/>
      <point x="718" y="1"/>
      <point x="544" y="1" type="curve" smooth="yes"/>
      <point x="219" y="1"/>
      <point x="70" y="294"/>
      <point x="70" y="545" type="curve" smooth="yes"/>
      <point x="70" y="857"/>
      <point x="221" y="1124"/>
      <point x="556" y="1124" type="curve" smooth="yes"/>
      <point x="702" y="1124"/>
      <point x="805" y="1064"/>
      <point x="889" y="951" type="curve"/>
      <point x="889" y="1098" type="line"/>
      <point x="1052" y="1098" type="line"/>
      <point x="1052" y="79" type="line" smooth="yes"/>
      <point x="1052" y="-206"/>
      <point x="1010" y="-502"/>
      <point x="497" y="-502" type="curve" smooth="yes"/>
    </contour>
  </outline>
</glyph>
<glyph name="m" format="1">
  <advance width="1773"/>
  <unicode hex="006D"/>
  <outline>
    <contour>
      <point x="114" y="0" type="line"/>
      <point x="114" y="820" type="line" smooth="yes"/>
      <point x="114" y="913"/>
      <point x="111" y="1066"/>
      <point x="111" y="1098" type="curve"/>
      <point x="255" y="1098" type="line"/>
      <point x="271" y="934" type="line"/>
      <point x="368" y="1063"/>
      <point x="502" y="1124"/>
      <point x="641" y="1124" type="curve" smooth="yes"/>
      <point x="794" y="1124"/>
      <point x="899" y="1068"/>
      <point x="950" y="921" type="curve"/>
      <point x="1047" y="1069"/>
      <point x="1175" y="1124"/>
      <point x="1330" y="1124" type="curve" smooth="yes"/>
      <point x="1578" y="1124"/>
      <point x="1668" y="954"/>
      <point x="1668" y="697" type="curve" smooth="yes"/>
      <point x="1668" y="0" type="line"/>
      <point x="1500" y="0" type="line"/>
      <point x="1500" y="573" type="line" smooth="yes"/>
      <point x="1500" y="820"/>
      <point x="1490" y="979"/>
      <point x="1303" y="979" type="curve" smooth="yes"/>
      <point x="1164" y="979"/>
      <point x="1044" y="879"/>
      <point x="993" y="731" type="curve"/>
      <point x="993" y="0" type="line"/>
      <point x="825" y="0" type="line"/>
      <point x="825" y="608" type="line" smooth="yes"/>
      <point x="825" y="832"/>
      <point x="787" y="979"/>
      <point x="621" y="979" type="curve" smooth="yes"/>
      <point x="450" y="979"/>
      <point x="318" y="861"/>
      <point x="282" y="749" type="curve"/>
      <point x="282" y="0" type="line"/>
    </contour>
  </outline>
</glyph>
<glyph name="p" format="1">
  <advance width="1148"/>
  <unicode hex="0070"/>
  <outline>
    <contour>
      <point x="111" y="-459" type="line"/>
      <point x="111" y="1098" type="line"/>
      <point x="269" y="1098" type="line"/>
      <point x="279" y="951" type="line"/>
      <point x="363" y="1064"/>
      <point x="473" y="1124"/>
      <point x="618" y="1124" type="curve" smooth="yes"/>
      <point x="942" y="1124"/>
      <point x="1078" y="854"/>
      <point x="1078" y="537" type="curve" smooth="yes"/>
      <point x="1078" y="240"/>
      <point x="904" y="-25"/>
      <point x="618" y="-25" type="curve" smooth="yes"/>
      <point x="478" y="-25"/>
      <point x="355" y="33"/>
      <point x="279" y="160" type="curve"/>
      <point x="279" y="-437" type="line"/>
    </contour>
    <contour>
      <point x="276" y="548" type="curve" smooth="yes"/>
      <point x="276" y="313"/>
      <point x="364" y="118"/>
      <point x="593" y="118" type="curve" smooth="yes"/>
      <point x="823" y="118"/>
      <point x="905" y="349"/>
      <point x="905" y="548" type="curve" smooth="yes"/>
      <point x="905" y="747"/>
      <point x="823" y="982"/>
      <point x="593" y="982" type="curve" smooth="yes"/>
      <point x="364" y="982"/>
      <point x="276" y="785"/>
    </contour>
  </outline>
</glyph>
<glyph name="s" format="1">
  <advance width="929"/>
  <unicode hex="0073"/>
  <outline>
    <contour>
      <point x="854" y="294" type="line" smooth="yes"/>
      <point x="847" y="88"/>
      <point x="699" y="-25"/>
      <point x="491" y="-25" type="curve" smooth="yes"/>
      <point x="323" y="-25"/>
      <point x="177" y="29"/>
      <point x="111" y="78" type="curve"/>
      <point x="154" y="206" type="line"/>
      <point x="195" y="180"/>
      <point x="316" y="114"/>
      <point x="465" y="114" type="curve" smooth="yes"/>
      <point x="482" y="114" type="line" smooth="yes"/>
      <point x="607" y="114"/>
      <point x="687" y="176"/>
      <point x="697" y="290" type="curve" smooth="yes"/>
      <point x="697" y="302" type="line" smooth="yes"/>
      <point x="697" y="372"/>
      <point x="654" y="437"/>
      <point x="531" y="471" type="curve" smooth="yes"/>
      <point x="384" y="512" type="line" smooth="yes"/>
      <point x="165" y="573"/>
      <point x="102" y="682"/>
      <point x="100" y="816" type="curve"/>
      <point x="100" y="970"/>
      <point x="222" y="1122"/>
      <point x="467" y="1124" type="curve"/>
      <point x="608" y="1124"/>
      <point x="715" y="1096"/>
      <point x="799" y="1053" type="curve"/>
      <point x="759" y="932" type="line"/>
      <point x="699" y="956"/>
      <point x="599" y="991"/>
      <point x="479" y="991" type="curve" smooth="yes"/>
      <point x="358" y="990"/>
      <point x="269" y="928"/>
      <point x="269" y="815" type="curve"/>
      <point x="270" y="748"/>
      <point x="308" y="694"/>
      <point x="426" y="663" type="curve"/>
      <point x="577" y="622" type="line" smooth="yes"/>
      <point x="755" y="574"/>
      <point x="854" y="481"/>
      <point x="854" y="299" type="curve" smooth="yes"/>
    </contour>
  </outline>
</glyph>
<glyph name="x" format="1">
  <advance width="1042"/>
  <unicode hex="0078"/>
  <outline>
    <contour>
      <point x="823" y="1098" type="line"/>
      <point x="1018" y="1098" type="line"/>
      <point x="624" y="552" type="line"/>
      <point x="1018" y="0" type="line"/>
      <point x="836" y="0" type="line"/>
      <point x="526" y="439" type="line"/>
      <point x="217" y="0" type="line"/>
      <point x="24" y="0" type="line"/>
      <point x="426" y="556" type="line"/>
      <point x="34" y="1098" type="line"/>
      <point x="227" y="1098" type="line"/>
      <point x="524" y="682" type="line"/>
    </contour>
  </outline>
</glyph>
<glyph name="y" format="1">
  <advance width="1012"/>
  <unicode hex="0079"/>
  <outline>
    <contour>
      <point x="180" y="1098" type="line"/>
      <point x="526" y="207" type="line"/>
      <point x="613" y="470"/>
      <point x="815" y="1099"/>
      <point x="816" y="1098" type="curve"/>
      <point x="993" y="1098" type="line"/>
      <point x="593" y="-48" type="line" smooth="yes"/>
      <point x="501" y="-314"/>
      <point x="400" y="-502"/>
      <point x="89" y="-502" type="curve" smooth="yes"/>
      <point x="36" y="-502" type="line"/>
      <point x="17" y="-351" type="line"/>
      <point x="46" y="-351" type="line" smooth="yes"/>
      <point x="282" y="-351"/>
      <point x="316" y="-314"/>
      <point x="431" y="23" type="curve"/>
      <point x="4" y="1098" type="line"/>
    </contour>
  </outline>
</glyph>
<glyph name="sterling" format="1">
  <advance width="1093"/>
  <unicode hex="00A3"/>
  <outline>
    <contour>
      <point x="97" y="707" type="line"/>
      <point x="97" y="849" type="line"/>
      <point x="271" y="849" type="line"/>
      <point x="271" y="935" type="line" smooth="yes"/>
      <point x="271" y="1245"/>
      <point x="320" y="1525"/>
      <point x="710" y="1525" type="curve" smooth="yes"/>
      <point x="883" y="1525"/>
      <point x="997" y="1446"/>
      <point x="1064" y="1349" type="curve"/>
      <point x="969" y="1242" type="line"/>
      <point x="897" y="1325"/>
      <point x="822" y="1373"/>
      <point x="710" y="1373" type="curve" smooth="yes"/>
      <point x="514" y="1373"/>
      <point x="447" y="1222"/>
      <point x="447" y="1008" type="curve" smooth="yes"/>
      <point x="447" y="849" type="line"/>
      <point x="845" y="849" type="line"/>
      <point x="845" y="707" type="line"/>
      <point x="447" y="707" type="line"/>
      <point x="447" y="530" type="line" smooth="yes"/>
      <point x="447" y="390"/>
      <point x="428" y="240"/>
      <point x="342" y="152" type="curve"/>
      <point x="374" y="156"/>
      <point x="399" y="162"/>
      <point x="431" y="162" type="curve" smooth="yes"/>
      <point x="1045" y="162" type="line"/>
      <point x="1045" y="0" type="line"/>
      <point x="129" y="0" type="line"/>
      <point x="107" y="137" type="line"/>
      <point x="243" y="209"/>
      <point x="271" y="311"/>
      <point x="271" y="467" type="curve" smooth="yes"/>
      <point x="271" y="707" type="line"/>
    </contour>
  </outline>
</glyph>
<glyph name="brokenbar" format="1">
  <advance width="449"/>
  <unicode hex="00A6"/>
  <outline>
    <contour>
      <point x="301" y="964" type="line"/>
      <point x="151" y="964" type="line"/>
      <point x="151" y="1603" type="line"/>
      <point x="301" y="1603" type="line"/>
    </contour>
    <contour>
      <point x="301" y="-301" type="line"/>
      <point x="151" y="-301" type="line"/>
      <point x="151" y="339" type="line"/>
      <point x="301" y="339" type="line"/>
    </contour>
  </outline>
</glyph>
<glyph name="paragraph" format="1">
  <advance width="1068"/>
  <unicode hex="00B6"/>
  <outline>
    <contour>
      <point x="518" y="-158" type="line"/>
      <point x="393" y="-158" type="line"/>
      <point x="393" y="847" type="line"/>
      <point x="172" y="851"/>
      <point x="13" y="1033"/>
      <point x="13" y="1212" type="curve" smooth="yes"/>
      <point x="13" y="1388"/>
      <point x="138" y="1561"/>
      <point x="461" y="1561" type="curve" smooth="yes"/>
      <point x="927" y="1561" type="line"/>
      <point x="927" y="1430" type="line"/>
      <point x="852" y="1430" type="line"/>
      <point x="852" y="-158" type="line"/>
      <point x="737" y="-158" type="line"/>
      <point x="737" y="1430" type="line"/>
      <point x="518" y="1430" type="line"/>
    </contour>
  </outline>
</glyph>
<glyph name="cedilla" format="1">
  <advance width="596"/>
  <unicode hex="00B8"/>
  <outline>
    <contour>
      <point x="114" y="-403" type="curve"/>
      <point x="122" y="-312" type="line"/>
      <point x="173" y="-327"/>
      <point x="220" y="-337"/>
      <point x="256" y="-337" type="curve" smooth="yes"/>
      <point x="331" y="-337"/>
      <point x="356" y="-307"/>
      <point x="356" y="-260" type="curve" smooth="yes"/>
      <point x="356" y="-203"/>
      <point x="316" y="-180"/>
      <point x="259" y="-180" type="curve" smooth="yes"/>
      <point x="249" y="-180"/>
      <point x="213" y="-183"/>
      <point x="198" y="-184" type="curve"/>
      <point x="226" y="16" type="line"/>
      <point x="312" y="16" type="line"/>
      <point x="298" y="-97" type="line"/>
      <point x="305" y="-97" type="line" smooth="yes"/>
      <point x="398" y="-97"/>
      <point x="482" y="-147"/>
      <point x="482" y="-257" type="curve" smooth="yes"/>
      <point x="482" y="-372"/>
      <point x="388" y="-425"/>
      <point x="268" y="-425" type="curve" smooth="yes"/>
      <point x="223" y="-425"/>
      <point x="167" y="-415"/>
    </contour>
  </outline>
</glyph>
<glyph name="onehalf" format="1">
  <advance width="1591"/>
  <unicode hex="00BD"/>
  <outline>
    <contour>
      <point x="122" y="1334" type="curve"/>
      <point x="122" y="1436" type="line"/>
      <point x="183" y="1467"/>
      <point x="231" y="1499"/>
      <point x="271" y="1539" type="curve"/>
      <point x="368" y="1538" type="line"/>
      <point x="368" y="746" type="line"/>
      <point x="492" y="746" type="line"/>
      <point x="492" y="650" type="line"/>
      <point x="135" y="650" type="line"/>
      <point x="135" y="746" type="line"/>
      <point x="253" y="746" type="line"/>
      <point x="253" y="1409" type="line"/>
      <point x="215" y="1384"/>
      <point x="166" y="1357"/>
    </contour>
    <contour>
      <point x="1165" y="1547" type="line"/>
      <point x="1300" y="1547" type="line"/>
      <point x="379" y="0" type="line"/>
      <point x="245" y="0" type="line"/>
    </contour>
    <contour>
      <point x="1370" y="617" type="curve" smooth="yes"/>
      <point x="1370" y="707"/>
      <point x="1305" y="760"/>
      <point x="1233" y="760" type="curve" smooth="yes"/>
      <point x="1162" y="760"/>
      <point x="1079" y="722"/>
      <point x="1020" y="634" type="curve"/>
      <point x="943" y="699" type="line"/>
      <point x="990" y="808"/>
      <point x="1117" y="868"/>
      <point x="1237" y="868" type="curve" smooth="yes"/>
      <point x="1372" y="868"/>
      <point x="1499" y="793"/>
      <point x="1499" y="629" type="curve" smooth="yes"/>
      <point x="1499" y="435"/>
      <point x="1311" y="268"/>
      <point x="1093" y="69" type="curve"/>
      <point x="1487" y="69" type="line"/>
      <point x="1487" y="-30" type="line"/>
      <point x="934" y="-30" type="line"/>
      <point x="934" y="63" type="line"/>
      <point x="1180" y="310"/>
      <point x="1370" y="492"/>
    </contour>
  </outline>
</glyph>
<glyph name="Thorn" format="1">
  <advance width="1291"/>
  <unicode hex="00DE"/>
  <outline>
    <contour>
      <point x="147" y="0" type="line"/>
      <point x="147" y="1496" type="line"/>
      <point x="324" y="1496" type="line"/>
      <point x="324" y="1217" type="line"/>
      <point x="648" y="1217" type="line" smooth="yes"/>
      <point x="1008" y="1217"/>
      <point x="1209" y="1107"/>
      <point x="1209" y="791" type="curve" smooth="yes"/>
      <point x="1209" y="525"/>
      <point x="1066" y="342"/>
      <point x="719" y="342" type="curve" smooth="yes"/>
      <point x="711" y="342"/>
      <point x="324" y="349"/>
      <point x="324" y="349" type="curve"/>
      <point x="324" y="0" type="line"/>
    </contour>
    <contour>
      <point x="324" y="1068" type="line"/>
      <point x="324" y="493" type="line"/>
      <point x="708" y="493" type="line" smooth="yes"/>
      <point x="956" y="493"/>
      <point x="1040" y="615"/>
      <point x="1040" y="782" type="curve" smooth="yes"/>
      <point x="1040" y="979"/>
      <point x="941" y="1068"/>
      <point x="666" y="1068" type="curve" smooth="yes"/>
    </contour>
  </outline>
</glyph>
<glyph name="ae" format="1">
  <advance width="1674"/>
  <unicode hex="00E6"/>
  <outline>
    <contour>
      <point x="1189" y="984" type="curve" smooth="yes"/>
      <point x="988" y="984"/>
      <point x="899" y="821"/>
      <point x="888" y="615" type="curve"/>
      <point x="1404" y="644" type="line"/>
      <point x="1404" y="654" type="line" smooth="yes"/>
      <point x="1402" y="882"/>
      <point x="1336" y="984"/>
    </contour>
    <contour>
      <point x="416" y="113" type="curve" smooth="yes"/>
      <point x="527" y="113"/>
      <point x="673" y="170"/>
      <point x="787" y="208" type="curve"/>
      <point x="742" y="290"/>
      <point x="717" y="386"/>
      <point x="711" y="499" type="curve"/>
      <point x="689" y="498"/>
      <point x="667" y="497"/>
      <point x="647" y="495" type="curve" smooth="yes"/>
      <point x="326" y="471"/>
      <point x="248" y="410"/>
      <point x="248" y="291" type="curve" smooth="yes"/>
      <point x="248" y="158"/>
      <point x="320" y="113"/>
    </contour>
    <contour>
      <point x="80" y="300" type="curve" smooth="yes"/>
      <point x="80" y="564"/>
      <point x="348" y="596"/>
      <point x="651" y="613" type="curve" smooth="yes"/>
      <point x="714" y="616" type="line"/>
      <point x="714" y="781" type="line" smooth="yes"/>
      <point x="714" y="914"/>
      <point x="665" y="976"/>
      <point x="524" y="976" type="curve" smooth="yes"/>
      <point x="387" y="976"/>
      <point x="251" y="938"/>
      <point x="168" y="894" type="curve"/>
      <point x="132" y="1032" type="line"/>
      <point x="212" y="1078"/>
      <point x="370" y="1124"/>
      <point x="520" y="1124" type="curve" smooth="yes"/>
      <point x="679" y="1124"/>
      <point x="807" y="1062"/>
      <point x="837" y="932" type="curve"/>
      <point x="910" y="1063"/>
      <point x="1047" y="1124"/>
      <point x="1192" y="1124" type="curve" smooth="yes"/>
      <point x="1465" y="1124"/>
      <point x="1566" y="909"/>
      <point x="1566" y="684" type="curve" smooth="yes"/>
      <point x="1566" y="588"/>
      <point x="1540" y="542"/>
      <point x="1379" y="534" type="curve" smooth="yes"/>
      <point x="882" y="509" type="line"/>
      <point x="898" y="275"/>
      <point x="981" y="119"/>
      <point x="1194" y="119" type="curve" smooth="yes"/>
      <point x="1323" y="119"/>
      <point x="1447" y="180"/>
      <point x="1517" y="229" type="curve"/>
      <point x="1569" y="108" type="line"/>
      <point x="1488" y="38"/>
      <point x="1359" y="-25"/>
      <point x="1183" y="-25" type="curve" smooth="yes"/>
      <point x="1039" y="-25"/>
      <point x="936" y="24"/>
      <point x="856" y="112" type="curve"/>
      <point x="738" y="39"/>
      <point x="560" y="-26"/>
      <point x="404" y="-26" type="curve" smooth="yes"/>
      <point x="230" y="-26"/>
      <point x="80" y="59"/>
    </contour>
  </outline>
</glyph>
<glyph name="eth" format="1">
  <advance width="1204"/>
  <unicode hex="00F0"/>
  <outline>
    <contour>
      <point x="603" y="833" type="curve" smooth="yes"/>
      <point x="391" y="833"/>
      <point x="269" y="675"/>
      <point x="269" y="485" type="curve" smooth="yes"/>
      <point x="269" y="294"/>
      <point x="382" y="114"/>
      <point x="609" y="114" type="curve" smooth="yes"/>
      <point x="825" y="114"/>
      <point x="945" y="271"/>
      <point x="945" y="472" type="curve" smooth="yes"/>
      <point x="945" y="653"/>
      <point x="825" y="833"/>
    </contour>
    <contour>
      <point x="569" y="972" type="curve" smooth="yes"/>
      <point x="700" y="972"/>
      <point x="787" y="919"/>
      <point x="844" y="877" type="curve"/>
      <point x="798" y="964"/>
      <point x="700" y="1096"/>
      <point x="541" y="1257" type="curve"/>
      <point x="269" y="1145" type="line"/>
      <point x="226" y="1277" type="line"/>
      <point x="446" y="1364" type="line"/>
      <point x="210" y="1588" type="line"/>
      <point x="433" y="1588" type="line"/>
      <point x="579" y="1429" type="line"/>
      <point x="868" y="1542" type="line"/>
      <point x="914" y="1413" type="line"/>
      <point x="672" y="1320" type="line"/>
      <point x="828" y="1150"/>
      <point x="941" y="1013"/>
      <point x="1015" y="884" type="curve"/>
      <point x="1084" y="754"/>
      <point x="1117" y="632"/>
      <point x="1117" y="492" type="curve" smooth="yes"/>
      <point x="1117" y="199"/>
      <point x="943" y="-25"/>
      <point x="603" y="-25" type="curve" smooth="yes"/>
      <point x="271" y="-25"/>
      <point x="87" y="212"/>
      <point x="87" y="486" type="curve" smooth="yes"/>
      <point x="87" y="777"/>
      <point x="279" y="972"/>
    </contour>
  </outline>
</glyph>
<glyph name="divide" format="1">
  <advance width="1211"/>
  <unicode hex="00F7"/>
  <outline>
    <contour>
      <point x="1098" y="523" type="line"/>
      <point x="97" y="523" type="line"/>
      <point x="97" y="672" type="line"/>
      <point x="1098" y="672" type="line"/>
    </contour>
    <contour>
      <point x="716" y="1166" type="line"/>
      <point x="716" y="939" type="line"/>
      <point x="491" y="939" type="line"/>
      <point x="491" y="1166" type="line"/>
    </contour>
    <contour>
      <point x="682" y="249" type="line"/>
      <point x="682" y="22" type="line"/>
      <point x="491" y="22" type="line"/>
      <point x="491" y="249" type="line"/>
    </contour>
  </outline>
</glyph>
<glyph name="dotlessi" format="1">
  <advance width="430"/>
  <unicode hex="0131"/>
  <outline>
    <contour>
      <point x="304" y="1098" type="line"/>
      <point x="304" y="0" type="line"/>
      <point x="135" y="0" type="line"/>
      <point x="135" y="1098" type="line"/>
    </contour>
  </outline>
</glyph>
<glyph name="afii57929" format="1">
  <advance width="504"/>
  <unicode hex="02BC"/>
  <outline>
    <contour>
      <point x="133" y="1102" type="line"/>
      <point x="226" y="1574" type="line"/>
      <point x="383" y="1574" type="line"/>
      <point x="249" y="1102" type="line"/>
    </contour>
  </outline>
</glyph>
<glyph name="circumflex" format="1">
  <advance width="800"/>
  <unicode hex="02C6"/>
  <outline>
    <contour>
      <point x="108" y="1251" type="line"/>
      <point x="295" y="1639" type="line"/>
      <point x="508" y="1639" type="line"/>
      <point x="695" y="1251" type="line"/>
      <point x="561" y="1251" type="line"/>
      <point x="400" y="1523" type="line"/>
      <point x="239" y="1251" type="line"/>
    </contour>
  </outline>
</glyph>
<glyph name="ogonek" format="1">
  <advance width="590"/>
  <unicode hex="02DB"/>
  <outline>
    <contour>
      <point x="331" y="-303" type="curve" smooth="yes"/>
      <point x="385" y="-303"/>
      <point x="417" y="-291"/>
      <point x="468" y="-270" type="curve"/>
      <point x="468" y="-387" type="line"/>
      <point x="430" y="-403"/>
      <point x="365" y="-419"/>
      <point x="311" y="-419" type="curve" smooth="yes"/>
      <point x="203" y="-419"/>
      <point x="118" y="-357"/>
      <point x="118" y="-243" type="curve" smooth="yes"/>
      <point x="118" y="-134"/>
      <point x="213" y="-51"/>
      <point x="309" y="5" type="curve"/>
      <point x="423" y="5" type="line"/>
      <point x="319" y="-72"/>
      <point x="243" y="-146"/>
      <point x="243" y="-214" type="curve" smooth="yes"/>
      <point x="243" y="-267"/>
      <point x="290" y="-303"/>
    </contour>
  </outline>
</glyph>
<glyph name="hungarumlaut" format="1">
  <advance width="817"/>
  <unicode hex="02DD"/>
  <outline>
    <contour>
      <point x="479" y="1594" type="line"/>
      <point x="227" y="1259" type="line"/>
      <point x="128" y="1259" type="line"/>
      <point x="326" y="1594" type="line"/>
    </contour>
    <contour>
      <point x="713" y="1594" type="line"/>
      <point x="463" y="1259" type="line"/>
      <point x="361" y="1259" type="line"/>
      <point x="563" y="1594" type="line"/>
    </contour>
  </outline>
</glyph>
<glyph name="uni0307" format="1">
  <advance width="411"/>
  <unicode hex="0307"/>
  <outline>
    <contour>
      <point x="209" y="1561" type="curve" smooth="yes"/>
      <point x="298" y="1561"/>
      <point x="342" y="1495"/>
      <point x="342" y="1429" type="curve" smooth="yes"/>
      <point x="342" y="1363"/>
      <point x="298" y="1297"/>
      <point x="209" y="1297" type="curve" smooth="yes"/>
      <point x="121" y="1297"/>
      <point x="76" y="1363"/>
      <point x="76" y="1429" type="curve" smooth="yes"/>
      <point x="76" y="1495"/>
      <point x="121" y="1561"/>
    </contour>
  </outline>
</glyph>
<glyph name="horncmb" format="1">
  <advance width="590"/>
  <unicode hex="031B"/>
  <outline>
    <contour>
      <point x="226" y="501" type="curve"/>
      <point x="343" y="501" type="line"/>
      <point x="364" y="452"/>
      <point x="374" y="399"/>
      <point x="374" y="351" type="curve" smooth="yes"/>
      <point x="374" y="245"/>
      <point x="324" y="156"/>
      <point x="223" y="156" type="curve" smooth="yes"/>
      <point x="194" y="156"/>
      <point x="162" y="159"/>
      <point x="131" y="162" type="curve"/>
      <point x="131" y="256" type="line"/>
      <point x="146" y="256"/>
      <point x="164" y="254"/>
      <point x="180" y="254" type="curve" smooth="yes"/>
      <point x="238" y="254"/>
      <point x="256" y="299"/>
      <point x="256" y="354" type="curve" smooth="yes"/>
      <point x="256" y="403"/>
      <point x="241" y="460"/>
    </contour>
  </outline>
</glyph>
<glyph name="Lambda" format="1">
  <advance width="1265"/>
  <unicode hex="039B"/>
  <outline>
    <contour>
      <point x="632" y="1306" type="line"/>
      <point x="177" y="0" type="line"/>
      <point x="-10" y="0" type="line"/>
      <point x="539" y="1496" type="line"/>
      <point x="724" y="1496" type="line"/>
      <point x="1275" y="0" type="line"/>
      <point x="1093" y="0" type="line"/>
    </contour>
  </outline>
</glyph>
<glyph name="Phi" format="1">
  <advance width="1661"/>
  <unicode hex="03A6"/>
  <outline>
    <contour>
      <point x="917" y="1205" type="curve"/>
      <point x="917" y="323" type="line"/>
      <point x="1232" y="352"/>
      <point x="1371" y="540"/>
      <point x="1371" y="772" type="curve" smooth="yes"/>
      <point x="1371" y="1010"/>
      <point x="1221" y="1179"/>
    </contour>
    <contour>
      <point x="740" y="323" type="curve"/>
      <point x="740" y="1205" type="line"/>
      <point x="441" y="1178"/>
      <point x="290" y="1012"/>
      <point x="290" y="772" type="curve" smooth="yes"/>
      <point x="290" y="541"/>
      <point x="428" y="353"/>
    </contour>
    <contour>
      <point x="740" y="1358" type="curve"/>
      <point x="740" y="1496" type="line"/>
      <point x="917" y="1496" type="line"/>
      <point x="917" y="1358" type="line"/>
      <point x="1327" y="1330"/>
      <point x="1560" y="1101"/>
      <point x="1560" y="772" type="curve" smooth="yes"/>
      <point x="1560" y="449"/>
      <point x="1340" y="199"/>
      <point x="917" y="170" type="curve"/>
      <point x="917" y="0" type="line"/>
      <point x="740" y="0" type="line"/>
      <point x="740" y="170" type="line"/>
      <point x="320" y="201"/>
      <point x="101" y="450"/>
      <point x="101" y="772" type="curve" smooth="yes"/>
      <point x="101" y="1100"/>
      <point x="333" y="1329"/>
    </contour>
  </outline>
</glyph>
<glyph name="pi" format="1">
  <advance width="1456"/>
  <unicode hex="03C0"/>
  <outline>
    <contour>
      <point x="1296" y="1120" type="line"/>
      <point x="1296" y="976" type="line"/>
      <point x="1114" y="976" type="line"/>
      <point x="1114" y="312" type="line" smooth="yes"/>
      <point x="1114" y="248"/>
      <point x="1116" y="158"/>
      <point x="1202" y="158" type="curve" smooth="yes"/>
      <point x="1221" y="158"/>
      <point x="1249" y="164"/>
      <point x="1278" y="172" type="curve"/>
      <point x="1278" y="6" type="line"/>
      <point x="1233" y="-2"/>
      <point x="1195" y="-8"/>
      <point x="1160" y="-8" type="curve" smooth="yes"/>
      <point x="1020" y="-8"/>
      <point x="976" y="79"/>
      <point x="976" y="301" type="curve" smooth="yes"/>
      <point x="976" y="976" type="line"/>
      <point x="570" y="976" type="line"/>
      <point x="564" y="825"/>
      <point x="555" y="685"/>
      <point x="544" y="556" type="curve" smooth="yes"/>
      <point x="525" y="335"/>
      <point x="494" y="91"/>
      <point x="446" y="0" type="curve"/>
      <point x="298" y="0" type="line"/>
      <point x="386" y="189"/>
      <point x="412" y="663"/>
      <point x="420" y="976" type="curve"/>
      <point x="313" y="973"/>
      <point x="241" y="954"/>
      <point x="176" y="911" type="curve"/>
      <point x="160" y="1053" type="line"/>
      <point x="219" y="1109"/>
      <point x="313" y="1120"/>
      <point x="470" y="1120" type="curve" smooth="yes"/>
    </contour>
  </outline>
</glyph>
<glyph name="afii10052" format="1">
  <advance width="1008"/>
  <unicode hex="0403"/>
  <outline>
    <contour>
      <point x="1003" y="1343" type="line"/>
      <point x="324" y="1343" type="line"/>
      <point x="324" y="0" type="line"/>
      <point x="147" y="0" type="line"/>
      <point x="147" y="1496" type="line"/>
      <point x="1003" y="1496" type="line"/>
    </contour>
  </outline>
</glyph>
<glyph name="afii10055" format="1">
  <advance width="490"/>
  <unicode hex="0406"/>
  <outline>
    <contour>
      <point x="331" y="1497" type="line"/>
      <point x="331" y="0" type="line"/>
      <point x="155" y="0" type="line"/>
      <point x="155" y="1497" type="line"/>
    </contour>
  </outline>
</glyph>
<glyph name="afii10058" format="1">
  <advance width="1825"/>
  <unicode hex="0409"/>
  <outline>
    <contour>
      <point x="1018" y="1496" type="line"/>
      <point x="1018" y="871" type="line"/>
      <point x="1277" y="871" type="line" smooth="yes"/>
      <point x="1553" y="871"/>
      <point x="1745" y="743"/>
      <point x="1745" y="428" type="curve" smooth="yes"/>
      <point x="1745" y="139"/>
      <point x="1561" y="0"/>
      <point x="1277" y="0" type="curve" smooth="yes"/>
      <point x="841" y="0" type="line"/>
      <point x="841" y="1341" type="line"/>
      <point x="458" y="1341" type="line"/>
      <point x="458" y="433" type="line" smooth="yes"/>
      <point x="458" y="125"/>
      <point x="424" y="-26"/>
      <point x="72" y="-26" type="curve" smooth="yes"/>
      <point x="44" y="-26" type="line"/>
      <point x="44" y="131" type="line"/>
      <point x="90" y="131" type="line" smooth="yes"/>
      <point x="271" y="131"/>
      <point x="281" y="236"/>
      <point x="281" y="384" type="curve" smooth="yes"/>
      <point x="281" y="1496" type="line"/>
    </contour>
    <contour>
      <point x="1277" y="717" type="curve" smooth="yes"/>
      <point x="1018" y="717" type="line"/>
      <point x="1018" y="155" type="line"/>
      <point x="1277" y="155" type="line" smooth="yes"/>
      <point x="1442" y="155"/>
      <point x="1563" y="255"/>
      <point x="1563" y="431" type="curve" smooth="yes"/>
      <point x="1563" y="607"/>
      <point x="1446" y="717"/>
    </contour>
  </outline>
</glyph>
<glyph name="afii10059" format="1">
  <advance width="1681"/>
  <unicode hex="040A"/>
  <outline>
    <contour>
      <point x="926" y="871" type="line"/>
      <point x="1144" y="871" type="line" smooth="yes"/>
      <point x="1420" y="871"/>
      <point x="1612" y="743"/>
      <point x="1612" y="428" type="curve" smooth="yes"/>
      <point x="1612" y="139"/>
      <point x="1428" y="0"/>
      <point x="1144" y="0" type="curve" smooth="yes"/>
      <point x="749" y="0" type="line"/>
      <point x="749" y="716" type="line"/>
      <point x="324" y="716" type="line"/>
      <point x="324" y="0" type="line"/>
      <point x="147" y="0" type="line"/>
      <point x="147" y="1496" type="line"/>
      <point x="324" y="1496" type="line"/>
      <point x="324" y="871" type="line"/>
      <point x="749" y="871" type="line"/>
      <point x="749" y="1496" type="line"/>
      <point x="926" y="1496" type="line"/>
    </contour>
    <contour>
      <point x="1144" y="716" type="curve" smooth="yes"/>
      <point x="926" y="716" type="line"/>
      <point x="926" y="160" type="line"/>
      <point x="1144" y="160" type="line" smooth="yes"/>
      <point x="1309" y="160"/>
      <point x="1430" y="255"/>
      <point x="1430" y="431" type="curve" smooth="yes"/>
      <point x="1430" y="607"/>
      <point x="1313" y="716"/>
    </contour>
  </outline>
</glyph>
<glyph name="afii10018" format="1">
  <advance width="1190"/>
  <unicode hex="0411"/>
  <outline>
    <contour>
      <point x="147" y="1496" type="line"/>
      <point x="1032" y="1496" type="line"/>
      <point x="1032" y="1341" type="line"/>
      <point x="324" y="1341" type="line"/>
      <point x="324" y="871" type="line"/>
      <point x="638" y="871" type="line" smooth="yes"/>
      <point x="914" y="871"/>
      <point x="1106" y="742"/>
      <point x="1106" y="427" type="curve" smooth="yes"/>
      <point x="1106" y="138"/>
      <point x="922" y="0"/>
      <point x="638" y="0" type="curve" smooth="yes"/>
      <point x="147" y="0" type="line"/>
    </contour>
    <contour>
      <point x="924" y="429" type="curve" smooth="yes"/>
      <point x="924" y="605"/>
      <point x="827" y="716"/>
      <point x="638" y="716" type="curve" smooth="yes"/>
      <point x="324" y="716" type="line"/>
      <point x="324" y="155" type="line"/>
      <point x="638" y="155" type="line" smooth="yes"/>
      <point x="823" y="155"/>
      <point x="924" y="253"/>
    </contour>
  </outline>
</glyph>
<glyph name="afii10020" format="1">
  <advance width="1008"/>
  <unicode hex="0413"/>
  <outline>
    <contour>
      <point x="1003" y="1341" type="line"/>
      <point x="323" y="1341" type="line"/>
      <point x="323" y="0" type="line"/>
      <point x="146" y="0" type="line"/>
      <point x="146" y="1496" type="line"/>
      <point x="1018" y="1496" type="line"/>
    </contour>
  </outline>
</glyph>
<glyph name="afii10021" format="1">
  <advance width="1387"/>
  <unicode hex="0414"/>
  <outline>
    <contour>
      <point x="523" y="1496" type="line"/>
      <point x="1193" y="1496" type="line"/>
      <point x="1193" y="152" type="line"/>
      <point x="1309" y="152" type="line"/>
      <point x="1309" y="-265" type="line"/>
      <point x="1132" y="-265" type="line"/>
      <point x="1132" y="0" type="line"/>
      <point x="191" y="0" type="line"/>
      <point x="191" y="-265" type="line"/>
      <point x="14" y="-265" type="line"/>
      <point x="14" y="152" type="line"/>
      <point x="171" y="152" type="line"/>
    </contour>
    <contour>
      <point x="1016" y="152" type="line"/>
      <point x="1016" y="1354" type="line"/>
      <point x="667" y="1354" type="line"/>
      <point x="367" y="152" type="line"/>
    </contour>
  </outline>
</glyph>
<glyph name="afii10024" format="1">
  <advance width="1746"/>
  <unicode hex="0416"/>
  <outline>
    <contour>
      <point x="962" y="1497" type="line"/>
      <point x="962" y="789" type="line"/>
      <point x="1499" y="1497" type="line"/>
      <point x="1712" y="1497" type="line"/>
      <point x="1210" y="833" type="line"/>
      <point x="1789" y="0" type="line"/>
      <point x="1568" y="0" type="line"/>
      <point x="1076" y="725" type="line"/>
      <point x="962" y="578" type="line"/>
      <point x="962" y="0" type="line"/>
      <point x="786" y="0" type="line"/>
      <point x="786" y="578" type="line"/>
      <point x="681" y="716" type="line"/>
      <point x="179" y="0" type="line"/>
      <point x="-43" y="0" type="line"/>
      <point x="547" y="824" type="line"/>
      <point x="35" y="1497" type="line"/>
      <point x="246" y="1497" type="line"/>
      <point x="786" y="789" type="line"/>
      <point x="786" y="1497" type="line"/>
    </contour>
  </outline>
</glyph>
<glyph name="afii10026" format="1">
  <advance width="1489"/>
  <unicode hex="0418"/>
  <outline>
    <contour>
      <point x="147" y="0" type="line"/>
      <point x="147" y="1497" type="line"/>
      <point x="310" y="1497" type="line"/>
      <point x="310" y="261" type="line"/>
      <point x="584" y="679"/>
      <point x="870" y="1084"/>
      <point x="1149" y="1497" type="curve"/>
      <point x="1342" y="1497" type="line"/>
      <point x="1342" y="0" type="line"/>
      <point x="1181" y="0" type="line"/>
      <point x="1181" y="1230" type="line"/>
      <point x="1089" y="1087" type="line"/>
      <point x="346" y="0" type="line"/>
    </contour>
  </outline>
</glyph>
<glyph name="afii10029" format="1">
  <advance width="1223"/>
  <unicode hex="041B"/>
  <outline>
    <contour>
      <point x="27" y="0" type="line"/>
      <point x="402" y="1496" type="line"/>
      <point x="1076" y="1496" type="line"/>
      <point x="1076" y="0" type="line"/>
      <point x="899" y="0" type="line"/>
      <point x="899" y="1341" type="line"/>
      <point x="553" y="1341" type="line"/>
      <point x="214" y="0" type="line"/>
    </contour>
  </outline>
</glyph>
<glyph name="afii10037" format="1">
  <advance width="1211"/>
  <unicode hex="0423"/>
  <outline>
    <contour>
      <point x="538" y="0" type="line"/>
      <point x="342" y="0" type="line"/>
      <point x="529" y="466" type="line"/>
      <point x="-1" y="1496" type="line"/>
      <point x="200" y="1496" type="line"/>
      <point x="636" y="637" type="line"/>
      <point x="1015" y="1496" type="line"/>
      <point x="1212" y="1496" type="line"/>
    </contour>
  </outline>
</glyph>
<glyph name="afii10040" format="1">
  <advance width="1488"/>
  <unicode hex="0426"/>
  <outline>
    <contour>
      <point x="1139" y="155" type="line"/>
      <point x="1139" y="1496" type="line"/>
      <point x="1316" y="1496" type="line"/>
      <point x="1316" y="155" type="line"/>
      <point x="1432" y="155" type="line"/>
      <point x="1432" y="-265" type="line"/>
      <point x="1257" y="-265" type="line"/>
      <point x="1257" y="0" type="line"/>
      <point x="147" y="0" type="line"/>
      <point x="147" y="1496" type="line"/>
      <point x="324" y="1496" type="line"/>
      <point x="324" y="155" type="line"/>
    </contour>
  </outline>
</glyph>
<glyph name="afii10046" format="1">
  <advance width="1144"/>
  <unicode hex="042C"/>
  <outline>
    <contour>
      <point x="324" y="1496" type="line"/>
      <point x="324" y="849" type="line"/>
      <point x="460" y="849" type="line" smooth="yes"/>
      <point x="801" y="849"/>
      <point x="1025" y="706"/>
      <point x="1025" y="435" type="curve" smooth="yes"/>
      <point x="1025" y="173"/>
      <point x="841" y="0"/>
      <point x="467" y="0" type="curve" smooth="yes"/>
      <point x="147" y="0" type="line"/>
      <point x="147" y="1496" type="line"/>
    </contour>
    <contour>
      <point x="324" y="696" type="line"/>
      <point x="324" y="155" type="line"/>
      <point x="487" y="155" type="line" smooth="yes"/>
      <point x="740" y="155"/>
      <point x="858" y="255"/>
      <point x="858" y="431" type="curve" smooth="yes"/>
      <point x="858" y="600"/>
      <point x="743" y="696"/>
      <point x="480" y="696" type="curve" smooth="yes"/>
    </contour>
  </outline>
</glyph>
<glyph name="afii10049" format="1">
  <advance width="1305"/>
  <unicode hex="042F"/>
  <outline>
    <contour>
      <point x="981" y="0" type="line"/>
      <point x="981" y="639" type="line"/>
      <point x="796" y="639" type="line" smooth="yes"/>
      <point x="644" y="639"/>
      <point x="593" y="645"/>
      <point x="554" y="648" type="curve"/>
      <point x="241" y="0" type="line"/>
      <point x="38" y="0" type="line"/>
      <point x="118" y="172"/>
      <point x="376" y="680"/>
      <point x="376" y="681" type="curve" smooth="yes"/>
      <point x="207" y="745"/>
      <point x="102" y="882"/>
      <point x="102" y="1074" type="curve" smooth="yes"/>
      <point x="102" y="1363"/>
      <point x="303" y="1496"/>
      <point x="672" y="1496" type="curve" smooth="yes"/>
      <point x="1158" y="1496" type="line"/>
      <point x="1158" y="0" type="line"/>
    </contour>
    <contour>
      <point x="631" y="792" type="curve" smooth="yes"/>
      <point x="981" y="792" type="line"/>
      <point x="981" y="1341" type="line"/>
      <point x="631" y="1341" type="line" smooth="yes"/>
      <point x="378" y="1341"/>
      <point x="272" y="1248"/>
      <point x="272" y="1072" type="curve" smooth="yes"/>
      <point x="272" y="903"/>
      <point x="350" y="792"/>
    </contour>
  </outline>
</glyph>
<glyph name="afii10073" format="1">
  <advance width="956"/>
  <unicode hex="0437"/>
  <outline>
    <contour>
      <point x="424" y="-25" type="curve" smooth="yes"/>
      <point x="297" y="-25"/>
      <point x="147" y="6"/>
      <point x="70" y="86" type="curve"/>
      <point x="91" y="133"/>
      <point x="109" y="154"/>
      <point x="128" y="201" type="curve"/>
      <point x="196" y="144"/>
      <point x="316" y="114"/>
      <point x="436" y="114" type="curve" smooth="yes"/>
      <point x="616" y="114"/>
      <point x="706" y="204"/>
      <point x="706" y="317" type="curve" smooth="yes"/>
      <point x="706" y="408"/>
      <point x="633" y="502"/>
      <point x="478" y="502" type="curve" smooth="yes"/>
      <point x="284" y="502" type="line"/>
      <point x="284" y="633" type="line"/>
      <point x="478" y="633" type="line" smooth="yes"/>
      <point x="616" y="633"/>
      <point x="672" y="727"/>
      <point x="672" y="806" type="curve" smooth="yes"/>
      <point x="672" y="908"/>
      <point x="599" y="986"/>
      <point x="423" y="986" type="curve" smooth="yes"/>
      <point x="307" y="986"/>
      <point x="176" y="937"/>
      <point x="128" y="890" type="curve"/>
      <point x="128" y="890"/>
      <point x="85" y="978"/>
      <point x="70" y="1013" type="curve"/>
      <point x="151" y="1096"/>
      <point x="300" y="1124"/>
      <point x="427" y="1124" type="curve" smooth="yes"/>
      <point x="726" y="1124"/>
      <point x="835" y="972"/>
      <point x="835" y="819" type="curve" smooth="yes"/>
      <point x="835" y="726"/>
      <point x="806" y="629"/>
      <point x="668" y="574" type="curve"/>
      <point x="819" y="532"/>
      <point x="865" y="419"/>
      <point x="870" y="311" type="curve"/>
      <point x="870" y="130"/>
      <point x="743" y="-25"/>
    </contour>
  </outline>
</glyph>
<glyph name="afii10079" format="1">
  <advance width="1117"/>
  <unicode hex="043D"/>
  <outline>
    <contour>
      <point x="115" y="1098" type="line"/>
      <point x="283" y="1098" type="line"/>
      <point x="283" y="653" type="line"/>
      <point x="834" y="653" type="line"/>
      <point x="834" y="1098" type="line"/>
      <point x="1002" y="1098" type="line"/>
      <point x="1002" y="0" type="line"/>
      <point x="834" y="0" type="line"/>
      <point x="834" y="518" type="line"/>
      <point x="283" y="518" type="line"/>
      <point x="283" y="0" type="line"/>
      <point x="115" y="0" type="line"/>
    </contour>
  </outline>
</glyph>
<glyph name="afii10085" format="1">
  <advance width="1095"/>
  <unicode hex="0443"/>
  <outline>
    <contour>
      <point x="551" y="202" type="line"/>
      <point x="856" y="1098" type="line"/>
      <point x="1039" y="1098" type="line"/>
      <point x="650" y="22" type="line" smooth="yes"/>
      <point x="534" y="-298"/>
      <point x="538" y="-410"/>
      <point x="176" y="-410" type="curve" smooth="yes"/>
      <point x="119" y="-410" type="line"/>
      <point x="93" y="-245" type="line"/>
      <point x="166" y="-245" type="line" smooth="yes"/>
      <point x="374" y="-245"/>
      <point x="376" y="-210"/>
      <point x="453" y="30" type="curve"/>
      <point x="44" y="1098" type="line"/>
      <point x="229" y="1098" type="line"/>
    </contour>
  </outline>
</glyph>
<glyph name="afii10088" format="1">
  <advance width="1106"/>
  <unicode hex="0446"/>
  <outline>
    <contour>
      <point x="913" y="0" type="line"/>
      <point x="128" y="0" type="line"/>
      <point x="128" y="1098" type="line"/>
      <point x="296" y="1098" type="line"/>
      <point x="296" y="134" type="line"/>
      <point x="789" y="134" type="line"/>
      <point x="789" y="1098" type="line"/>
      <point x="957" y="1098" type="line"/>
      <point x="957" y="136" type="line"/>
      <point x="1056" y="136" type="line"/>
      <point x="1056" y="-269" type="line"/>
      <point x="923" y="-269" type="line"/>
    </contour>
  </outline>
</glyph>
<glyph name="afii10089" format="1">
  <advance width="1030"/>
  <unicode hex="0447"/>
  <outline>
    <contour>
      <point x="242" y="862" type="line" smooth="yes"/>
      <point x="242" y="622"/>
      <point x="322" y="538"/>
      <point x="488" y="538" type="curve" smooth="yes"/>
      <point x="601" y="538"/>
      <point x="713" y="610"/>
      <point x="747" y="753" type="curve"/>
      <point x="747" y="1098" type="line"/>
      <point x="915" y="1098" type="line"/>
      <point x="915" y="0" type="line"/>
      <point x="747" y="0" type="line"/>
      <point x="747" y="548" type="line"/>
      <point x="700" y="450"/>
      <point x="585" y="395"/>
      <point x="457" y="395" type="curve" smooth="yes"/>
      <point x="202" y="395"/>
      <point x="74" y="568"/>
      <point x="74" y="844" type="curve" smooth="yes"/>
      <point x="74" y="1098" type="line"/>
      <point x="242" y="1098" type="line"/>
    </contour>
  </outline>
</glyph>
<glyph name="afii10093" format="1">
  <advance width="1322"/>
  <unicode hex="044B"/>
  <outline>
    <component base="afii10094"/>
    <contour>
      <point x="1207" y="1098" type="line"/>
      <point x="1207" y="0" type="line"/>
      <point x="1039" y="0" type="line"/>
      <point x="1039" y="1098" type="line"/>
    </contour>
  </outline>
</glyph>
<glyph name="afii10096" format="1">
  <advance width="1468"/>
  <unicode hex="044E"/>
  <outline>
    <contour>
      <point x="1381" y="549" type="curve" smooth="yes"/>
      <point x="1381" y="245"/>
      <point x="1252" y="-25"/>
      <point x="923" y="-25" type="curve" smooth="yes"/>
      <point x="616" y="-25"/>
      <point x="477" y="195"/>
      <point x="458" y="478" type="curve"/>
      <point x="283" y="478" type="line"/>
      <point x="283" y="0" type="line"/>
      <point x="115" y="0" type="line"/>
      <point x="115" y="1098" type="line"/>
      <point x="283" y="1098" type="line"/>
      <point x="283" y="618" type="line"/>
      <point x="458" y="618" type="line"/>
      <point x="478" y="900"/>
      <point x="619" y="1124"/>
      <point x="926" y="1124" type="curve" smooth="yes"/>
      <point x="1262" y="1124"/>
      <point x="1381" y="865"/>
    </contour>
    <contour>
      <point x="926" y="113" type="curve" smooth="yes"/>
      <point x="1143" y="113"/>
      <point x="1207" y="323"/>
      <point x="1207" y="547" type="curve" smooth="yes"/>
      <point x="1207" y="780"/>
      <point x="1150" y="986"/>
      <point x="923" y="986" type="curve" smooth="yes"/>
      <point x="707" y="986"/>
      <point x="629" y="768"/>
      <point x="629" y="544" type="curve" smooth="yes"/>
      <point x="629" y="323"/>
      <point x="706" y="113"/>
    </contour>
  </outline>
</glyph>
<glyph name="afii10193" format="1">
  <advance width="1106"/>
  <unicode hex="045F"/>
  <outline>
    <contour>
      <point x="488" y="0" type="line"/>
      <point x="115" y="0" type="line"/>
      <point x="115" y="1098" type="line"/>
      <point x="283" y="1098" type="line"/>
      <point x="283" y="134" type="line"/>
      <point x="789" y="134" type="line"/>
      <point x="789" y="1098" type="line"/>
      <point x="957" y="1098" type="line"/>
      <point x="957" y="0" type="line"/>
      <point x="636" y="0" type="line"/>
      <point x="629" y="-278" type="line"/>
      <point x="493" y="-278" type="line"/>
    </contour>
  </outline>
</glyph>
<glyph name="quoteleft" format="1">
  <advance width="510"/>
  <unicode hex="2018"/>
  <outline>
    <contour>
      <point x="382" y="1574" type="line"/>
      <point x="291" y="1102" type="line"/>
      <point x="129" y="1102" type="line"/>
      <point x="265" y="1574" type="line"/>
    </contour>
  </outline>
</glyph>
<glyph name="guilsinglright" format="1">
  <advance width="617"/>
  <unicode hex="203A"/>
  <outline>
    <contour>
      <point x="505" y="585" type="line"/>
      <point x="264" y="182" type="line"/>
      <point x="124" y="182" type="line"/>
      <point x="355" y="585" type="line"/>
      <point x="130" y="982" type="line"/>
      <point x="269" y="982" type="line"/>
    </contour>
  </outline>
</glyph>
<glyph name="fraction" format="1">
  <advance width="1135"/>
  <unicode hex="2044"/>
  <outline>
    <contour>
      <point x="936" y="1547" type="line"/>
      <point x="1066" y="1547" type="line"/>
      <point x="191" y="0" type="line"/>
      <point x="60" y="0" type="line"/>
    </contour>
  </outline>
</glyph>
<glyph name="uni2206" format="1">
  <advance width="1339"/>
  <unicode hex="2206"/>
  <outline>
    <contour>
      <point x="1263" y="86" type="line"/>
      <point x="1263" y="0" type="line"/>
      <point x="83" y="0" type="line"/>
      <point x="83" y="86" type="line"/>
      <point x="578" y="1541" type="line"/>
      <point x="768" y="1541" type="line"/>
    </contour>
    <contour>
      <point x="284" y="174" type="line"/>
      <point x="1062" y="174" type="line"/>
      <point x="704" y="1195" type="line"/>
      <point x="668" y="1312" type="line"/>
      <point x="636" y="1195" type="line"/>
    </contour>
  </outline>
</glyph>
<glyph name="approxequal" format="1">
  <advance width="1314"/>
  <unicode hex="2248"/>
  <outline>
    <contour>
      <point x="1080" y="589" type="curve"/>
      <point x="1178" y="558" type="line"/>
      <point x="1146" y="393"/>
      <point x="1067" y="282"/>
      <point x="895" y="282" type="curve" smooth="yes"/>
      <point x="811" y="282"/>
      <point x="728" y="317"/>
      <point x="615" y="385" type="curve"/>
      <point x="547" y="428"/>
      <point x="487" y="459"/>
      <point x="427" y="459" type="curve" smooth="yes"/>
      <point x="326" y="459"/>
      <point x="271" y="388"/>
      <point x="239" y="280" type="curve"/>
      <point x="138" y="312" type="line"/>
      <point x="171" y="484"/>
      <point x="269" y="589"/>
      <point x="428" y="589" type="curve" smooth="yes"/>
      <point x="613" y="589"/>
      <point x="776" y="411"/>
      <point x="898" y="411" type="curve" smooth="yes"/>
      <point x="986" y="411"/>
      <point x="1040" y="476"/>
    </contour>
    <contour>
      <point x="1077" y="988" type="curve"/>
      <point x="1176" y="959" type="line"/>
      <point x="1144" y="793"/>
      <point x="1061" y="684"/>
      <point x="892" y="684" type="curve" smooth="yes"/>
      <point x="805" y="684"/>
      <point x="724" y="718"/>
      <point x="613" y="787" type="curve" smooth="yes"/>
      <point x="545" y="830"/>
      <point x="484" y="860"/>
      <point x="424" y="860" type="curve" smooth="yes"/>
      <point x="323" y="860"/>
      <point x="268" y="792"/>
      <point x="239" y="684" type="curve"/>
      <point x="136" y="712" type="line"/>
      <point x="168" y="882"/>
      <point x="269" y="988"/>
      <point x="427" y="988" type="curve" smooth="yes"/>
      <point x="515" y="988"/>
      <point x="594" y="950"/>
      <point x="689" y="893" type="curve" smooth="yes"/>
      <point x="781" y="837"/>
      <point x="839" y="810"/>
      <point x="896" y="810" type="curve" smooth="yes"/>
      <point x="984" y="810"/>
      <point x="1038" y="873"/>
    </contour>
  </outline>
</glyph>
<glyph name="uniFB02" format="1">
  <advance width="1237"/>
  <unicode hex="FB02"/>
  <outline>
    <contour>
      <point x="1094" y="-12" type="curve" smooth="yes"/>
      <point x="822" y="-12"/>
      <point x="808" y="123"/>
      <point x="808" y="487" type="curve" smooth="yes"/>
      <point x="808" y="1376" type="line"/>
      <point x="699" y="1383"/>
      <point x="638" y="1384"/>
      <point x="604" y="1384" type="curve" smooth="yes"/>
      <point x="572" y="1384"/>
      <point x="562" y="1383"/>
      <point x="557" y="1383" type="curve" smooth="yes"/>
      <point x="399" y="1383"/>
      <point x="349" y="1315"/>
      <point x="349" y="1098" type="curve"/>
      <point x="598" y="1098" type="line"/>
      <point x="598" y="980" type="line"/>
      <point x="349" y="980" type="line"/>
      <point x="349" y="0" type="line"/>
      <point x="181" y="0" type="line"/>
      <point x="181" y="980" type="line"/>
      <point x="20" y="980" type="line"/>
      <point x="20" y="1098" type="line"/>
      <point x="181" y="1098" type="line"/>
      <point x="181" y="1423"/>
      <point x="315" y="1512"/>
      <point x="550" y="1512" type="curve" smooth="yes"/>
      <point x="570" y="1512"/>
      <point x="590" y="1512"/>
      <point x="976" y="1490" type="curve"/>
      <point x="976" y="450" type="line" smooth="yes"/>
      <point x="976" y="211"/>
      <point x="977" y="128"/>
      <point x="1134" y="128" type="curve" smooth="yes"/>
      <point x="1159" y="128"/>
      <point x="1155" y="128"/>
      <point x="1207" y="132" type="curve"/>
      <point x="1218" y="1" type="line"/>
      <point x="1121" y="-10"/>
      <point x="1111" y="-12"/>
    </contour>
  </outline>
</glyph>
